<?xml version="1.0" encoding="UTF-8" standalone="no"?>
<svg
   width="56mm"
   height="20mm"
   viewBox="0 0 20 60"
   version="1.1"
   id="svg5"
   inkscape:version="1.1-alpha (2a16015, 2021-02-21)"
   sodipodi:docname="AudioAndBook.svg"
   xmlns:inkscape="http://www.inkscape.org/namespaces/inkscape"
   xmlns:sodipodi="http://sodipodi.sourceforge.net/DTD/sodipodi-0.dtd"
   xmlns="http://www.w3.org/2000/svg"
   xmlns:svg="http://www.w3.org/2000/svg">
  <sodipodi:namedview
     id="namedview7"
     pagecolor="#ffffff"
     bordercolor="#666666"
     borderopacity="1.0"
     objecttolerance="10.0"
     gridtolerance="10.0"
     guidetolerance="10.0"
     inkscape:pageshadow="2"
     inkscape:pageopacity="0.0"
     inkscape:pagecheckerboard="0"
     inkscape:document-units="mm"
     showgrid="false"
     inkscape:zoom="3.1072952"
     inkscape:cx="147.55598"
     inkscape:cy="13.999314"
     inkscape:window-width="1858"
     inkscape:window-height="1057"
     inkscape:window-x="-8"
     inkscape:window-y="-8"
     inkscape:window-maximized="1"
     inkscape:current-layer="layer1" />
  <defs
     id="defs2">
    <inkscape:path-effect
       effect="bspline"
       id="path-effect8255"
       is_visible="true"
       lpeversion="1"
       weight="33.333333"
       steps="2"
       helper_size="0"
       apply_no_weight="true"
       apply_with_weight="true"
       only_selected="false" />
    <inkscape:path-effect
       effect="bspline"
       id="path-effect8121"
       is_visible="true"
       lpeversion="1"
       weight="33.333333"
       steps="2"
       helper_size="0"
       apply_no_weight="true"
       apply_with_weight="true"
       only_selected="false" />
    <inkscape:path-effect
       effect="bspline"
       id="path-effect8117"
       is_visible="true"
       lpeversion="1"
       weight="33.333333"
       steps="2"
       helper_size="0"
       apply_no_weight="true"
       apply_with_weight="true"
       only_selected="false" />
    <inkscape:path-effect
       effect="bspline"
       id="path-effect8068"
       is_visible="true"
       lpeversion="1"
       weight="33.333333"
       steps="2"
       helper_size="0"
       apply_no_weight="true"
       apply_with_weight="true"
       only_selected="false" />
    <inkscape:path-effect
       effect="bspline"
       id="path-effect7960"
       is_visible="true"
       lpeversion="1"
       weight="33.333333"
       steps="2"
       helper_size="0"
       apply_no_weight="true"
       apply_with_weight="true"
       only_selected="false" />
  </defs>
  <g
     inkscape:label="Слой 1"
     inkscape:groupmode="layer"
     id="layer1">
    <g
       style="fill:none"
       id="g150"
       transform="matrix(2.723982,0,0,2.723982,28.334206,-2.2896266)">
      <path
         fill-rule="evenodd"
         clip-rule="evenodd"
         d="M 2.98423,12.9162 C 2.97585,12.8329 2.96625,12.7272 2.95688,12.6018 2.93272,12.2782 2.90995,11.8208 2.9141,11.2737 2.92233,10.1862 3.03699,8.71096 3.47849,7.21665 3.92001,5.72226 4.70463,4.15592 6.08896,2.96159 7.48926,1.75349 9.41802,1 12,1 c 2.582,0 4.5107,0.75349 5.911,1.96159 1.3844,1.19433 2.169,2.76067 2.6105,4.25506 0.4415,1.49431 0.5562,2.96955 0.5644,4.05705 0.0042,0.5471 -0.0186,1.0045 -0.0428,1.3281 -0.0093,0.1254 -0.0189,0.2311 -0.0273,0.3144 l 0.005,0.0027 C 22.0321,13.466 23,14.435 23,16 v 3 c 0,1.565 -0.9679,2.534 -1.9792,3.0811 -0.9835,0.532 -2.1322,0.748 -2.905,0.8412 C 16.9041,23.0682 16,22.0814 16,21 v -7 c 0,-1.0814 0.9041,-2.0682 2.1158,-1.9223 0.276,0.0333 0.6,0.0822 0.9473,0.1557 0.0146,-0.2549 0.0257,-0.5759 0.0229,-0.9446 C 19.0786,10.3138 18.9745,9.03904 18.6035,7.78334 18.2325,6.52774 17.6109,5.34408 16.6046,4.47591 15.6143,3.62151 14.168,3 12,3 9.83199,3 8.38575,3.62151 7.39543,4.47591 6.38913,5.34408 5.7675,6.52774 5.39652,7.78334 5.02552,9.03904 4.92143,10.3138 4.91404,11.2888 4.91125,11.6575 4.92229,11.9785 4.93689,12.2334 5.28418,12.1599 5.60817,12.111 5.88422,12.0777 7.09594,11.9318 8,12.9186 8,14 v 7 C 8,22.0814 7.09594,23.0682 5.88422,22.9223 5.11136,22.8291 3.96273,22.6131 2.97917,22.0811 1.96791,21.534 1,20.565 1,19 V 16 C 1,14.435 1.96791,13.466 2.97917,12.9189 Z M 18,20.9209 c 0.6625,-0.0886 1.4542,-0.2663 2.0692,-0.599 C 20.6953,19.9833 21,19.5754 21,19 V 16 C 21,15.4246 20.6953,15.0167 20.0692,14.6781 19.4542,14.3454 18.6625,14.1677 18,14.0791 Z M 6,14.0791 C 5.33746,14.1677 4.54579,14.3454 3.93076,14.6781 3.30474,15.0167 3,15.4246 3,16 v 3 c 0,0.5754 0.30474,0.9833 0.93076,1.3219 0.61503,0.3327 1.4067,0.5104 2.06924,0.599 z"
         fill="#0f0f0f"
         id="path141" />
    </g>
    <g
       style="fill:none"
       id="g161"
       transform="matrix(3.2341642,0,0,3.2341642,-78.421522,-8.8948265)">
      <path
         d="M 12,10.4 V 20 m 0,-9.6 C 12,8.15979 12,7.03969 11.564,6.18404 11.1805,5.43139 10.5686,4.81947 9.81596,4.43597 8.96031,4 7.84021,4 5.6,4 h -1 C 4.03995,4 3.75992,4 3.54601,4.10899 3.35785,4.20487 3.20487,4.35785 3.10899,4.54601 3,4.75992 3,5.03995 3,5.6 v 10.8 c 0,0.5601 0,0.8401 0.10899,1.054 0.09588,0.1882 0.24886,0.3411 0.43702,0.437 C 3.75992,18 4.03995,18 4.6,18 h 2.94668 c 0.54019,0 0.81028,0 1.07146,0.0466 0.23181,0.0413 0.45796,0.1097 0.67377,0.204 0.24313,0.1061 0.46786,0.2559 0.91729,0.5556 L 12,20 m 0,-9.6 C 12,8.15979 12,7.03969 12.436,6.18404 12.8195,5.43139 13.4314,4.81947 14.184,4.43597 15.0397,4 16.1598,4 18.4,4 h 1 c 0.5601,0 0.8401,0 1.054,0.10899 0.1882,0.09588 0.3411,0.24886 0.437,0.43702 C 21,4.75992 21,5.03995 21,5.6 v 10.8 c 0,0.5601 0,0.8401 -0.109,1.054 -0.0959,0.1882 -0.2488,0.3411 -0.437,0.437 C 20.2401,18 19.9601,18 19.4,18 h -2.9467 c -0.5402,0 -0.8103,0 -1.0714,0.0466 -0.2319,0.0413 -0.458,0.1097 -0.6738,0.204 -0.2431,0.1061 -0.4679,0.2559 -0.9173,0.5556 L 12,20"
         stroke="#000000"
         stroke-width="2"
         stroke-linecap="round"
         stroke-linejoin="round"
         id="path152" />
    </g>
    <rect
       style="fill:#000000;stroke-width:0.0618557"
       id="rect185"
       width="6.2930484"
       height="61.687038"
       x="21.711008"
       y="-7.9909797"
       rx="0.19087361"
       transform="rotate(21.991663)" />
  </g>
</svg>
