<?xml version="1.0" encoding="UTF-8" standalone="no"?>
<svg
   width="56mm"
   height="20mm"
   viewBox="0 0 24 24"
   fill="none"
   version="1.1"
   id="svg4"
   sodipodi:docname="opened_book.svg"
   inkscape:version="1.1-alpha (2a16015, 2021-02-21)"
   xmlns:inkscape="http://www.inkscape.org/namespaces/inkscape"
   xmlns:sodipodi="http://sodipodi.sourceforge.net/DTD/sodipodi-0.dtd"
   xmlns="http://www.w3.org/2000/svg"
   xmlns:svg="http://www.w3.org/2000/svg">
  <defs
     id="defs8" />
  <sodipodi:namedview
     id="namedview6"
     pagecolor="#ffffff"
     bordercolor="#666666"
     borderopacity="1.0"
     objecttolerance="10.0"
     gridtolerance="10.0"
     guidetolerance="10.0"
     inkscape:pageshadow="2"
     inkscape:pageopacity="0.0"
     inkscape:pagecheckerboard="0"
     showgrid="false"
     inkscape:zoom="4.36"
     inkscape:cx="123.27982"
     inkscape:cy="71.90367"
     inkscape:window-width="1858"
     inkscape:window-height="1057"
     inkscape:window-x="-8"
     inkscape:window-y="-8"
     inkscape:window-maximized="1"
     inkscape:current-layer="svg4"
     inkscape:document-units="mm" />
  <path
     d="M 12.78539,9.8658847 V 22.455757 m 0,-12.5898723 c 0,-2.9379123 0,-4.4068614 -0.571791,-5.5289993 C 11.710661,3.3498263 10.908188,2.547327 9.9211418,2.0443877 8.7990035,1.4726372 7.3300537,1.4726372 4.3921419,1.4726372 h -1.311445 c -0.7344748,0 -1.1017187,0 -1.3822499,0.1429343 C 1.4516855,1.7413128 1.2510607,1.9419377 1.1253194,2.1886992 0.98238499,2.4692304 0.98238499,2.8364743 0.98238499,3.5709491 V 17.734554 c 0,0.734541 0,1.101746 0.14293441,1.382264 0.1257413,0.246813 0.3263661,0.447334 0.5731276,0.573101 0.2805312,0.142947 0.6477751,0.142947 1.3822499,0.142947 h 3.8644082 c 0.7084298,0 1.0626382,0 1.4051608,0.06111 0.3040066,0.05417 0.6005896,0.143866 0.8836131,0.267535 0.318851,0.139145 0.6135723,0.335599 1.202975,0.728639 l 2.348536,1.565604 m 0,-12.5898719 c 0,-2.9379123 0,-4.4068614 0.57179,-5.5289993 0.502939,-0.987059 1.305413,-1.7895584 2.292406,-2.2924976 1.122203,-0.5717506 2.591152,-0.5717506 5.529052,-0.5717506 h 1.311444 c 0.734541,0 1.101745,0 1.382263,0.1429344 0.246815,0.1257413 0.447334,0.3263661 0.573102,0.5731276 0.142947,0.2805312 0.142947,0.6477751 0.142947,1.3822499 V 17.734554 c 0,0.734541 0,1.101746 -0.142947,1.382264 -0.125768,0.246813 -0.326287,0.447334 -0.573102,0.573101 -0.280518,0.142947 -0.647722,0.142947 -1.382263,0.142947 h -3.864434 c -0.708443,0 -1.062664,0 -1.405082,0.06111 -0.304125,0.05417 -0.600642,0.143866 -0.883652,0.267535 -0.318812,0.139145 -0.613625,0.335599 -1.202988,0.728639 l -2.348536,1.565604"
     stroke="#000000"
     stroke-width="2.62289"
     stroke-linecap="round"
     stroke-linejoin="round"
     id="path2" />
</svg>
