<?xml version="1.0" encoding="UTF-8" standalone="no"?>
<svg
   width="30mm"
   height="30mm"
   viewBox="0 0 30 30"
   version="1.1"
   id="svg21"
   sodipodi:docname="pause.svg"
   inkscape:version="1.1-alpha (2a16015, 2021-02-21)"
   xmlns:inkscape="http://www.inkscape.org/namespaces/inkscape"
   xmlns:sodipodi="http://sodipodi.sourceforge.net/DTD/sodipodi-0.dtd"
   xmlns="http://www.w3.org/2000/svg"
   xmlns:svg="http://www.w3.org/2000/svg">
  <sodipodi:namedview
     id="namedview23"
     pagecolor="#ffffff"
     bordercolor="#666666"
     borderopacity="1.0"
     objecttolerance="10.0"
     gridtolerance="10.0"
     guidetolerance="10.0"
     inkscape:pageshadow="2"
     inkscape:pageopacity="0.0"
     inkscape:pagecheckerboard="0"
     inkscape:document-units="mm"
     showgrid="false"
     inkscape:zoom="6.2145903"
     inkscape:cx="43.043867"
     inkscape:cy="56.560446"
     inkscape:window-width="1856"
     inkscape:window-height="1057"
     inkscape:window-x="-8"
     inkscape:window-y="-8"
     inkscape:window-maximized="1"
     inkscape:current-layer="layer1" />
  <defs
     id="defs18" />
  <g
     inkscape:label="Слой 1"
     inkscape:groupmode="layer"
     id="layer1">
    <g
       id="g716"
       transform="matrix(1.3897682,0,0,1.2231159,-0.67309522,-3.665626)">
      <path
         id="rect47"
         style="fill:#1a2141;stroke-width:0.999999"
         d="m 16.140625,16.896484 c -0.295029,0 -0.53125,0.236221 -0.53125,0.53125 v 80.677735 c 0,0.295029 0.236221,0.533203 0.53125,0.533203 h 21.462891 c 0.295029,0 0.533203,-0.238174 0.533203,-0.533203 V 17.427734 c 0,-0.295029 -0.238174,-0.53125 -0.533203,-0.53125 z m 6.533203,8.681641 h 8.396484 c 0.115434,0 0.208985,0.09355 0.208985,0.208984 v 63.960938 c 0,0.115433 -0.09355,0.207031 -0.208985,0.207031 h -8.396484 c -0.115433,0 -0.208984,-0.0916 -0.208984,-0.207031 V 25.787109 c 0,-0.115433 0.09355,-0.208984 0.208984,-0.208984 z"
         transform="scale(0.26458333)" />
      <path
         id="rect47-3"
         style="fill:#1a2141;stroke-width:0.264583"
         d="m 13.126046,4.470528 c -0.07806,0 -0.14056,0.0625 -0.14056,0.1405599 V 25.957072 c 0,0.07806 0.0625,0.141077 0.14056,0.141077 h 5.678723 c 0.07806,0 0.141076,-0.06302 0.141076,-0.141077 V 4.6110879 c 0,-0.07806 -0.06302,-0.1405599 -0.141076,-0.1405599 z m 1.728576,2.2970175 h 2.22157 c 0.03054,0 0.05529,0.024752 0.05529,0.055294 V 23.745837 c 0,0.03054 -0.02475,0.05478 -0.05529,0.05478 h -2.22157 c -0.03054,0 -0.05529,-0.02424 -0.05529,-0.05478 V 6.8228392 c 0,-0.030542 0.02475,-0.055294 0.05529,-0.055294 z" />
    </g>
  </g>
</svg>
