<?xml version="1.0" encoding="UTF-8" standalone="no"?>
<svg
   width="30mm"
   height="30mm"
   viewBox="0 0 210 297"
   version="1.1"
   id="svg5"
   inkscape:version="1.1-alpha (2a16015, 2021-02-21)"
   sodipodi:docname="search.svg"
   xmlns:inkscape="http://www.inkscape.org/namespaces/inkscape"
   xmlns:sodipodi="http://sodipodi.sourceforge.net/DTD/sodipodi-0.dtd"
   xmlns="http://www.w3.org/2000/svg"
   xmlns:svg="http://www.w3.org/2000/svg">
  <sodipodi:namedview
     id="namedview7"
     pagecolor="#ffffff"
     bordercolor="#666666"
     borderopacity="1.0"
     objecttolerance="10.0"
     gridtolerance="10.0"
     guidetolerance="10.0"
     inkscape:pageshadow="2"
     inkscape:pageopacity="0.0"
     inkscape:pagecheckerboard="0"
     inkscape:document-units="mm"
     showgrid="false"
     inkscape:zoom="1.5536476"
     inkscape:cx="-25.424041"
     inkscape:cy="58.250018"
     inkscape:window-width="1858"
     inkscape:window-height="1057"
     inkscape:window-x="-8"
     inkscape:window-y="-8"
     inkscape:window-maximized="1"
     inkscape:current-layer="layer1" />
  <defs
     id="defs2" />
  <g
     inkscape:label="Слой 1"
     inkscape:groupmode="layer"
     id="layer1">
    <g
       id="g112"
       style="fill:#666666">
      <path
         id="path238"
         style="stroke-width:1.5015;fill:#666666"
         d="M 41.033203 0.32226562 A 40.227912 40.227912 0 0 0 0.8046875 40.548828 A 40.227912 40.227912 0 0 0 41.033203 80.777344 A 40.227912 40.227912 0 0 0 81.259766 40.548828 A 40.227912 40.227912 0 0 0 41.033203 0.32226562 z M 41.302734 9.609375 A 30.78403 30.78403 0 0 1 72.085938 40.392578 A 30.78403 30.78403 0 0 1 41.302734 71.175781 A 30.78403 30.78403 0 0 1 10.519531 40.392578 A 30.78403 30.78403 0 0 1 41.302734 9.609375 z "
         transform="matrix(2.619375,0,0,2.619375,-43.5,0)" />
      <rect
         style="fill:#666666;stroke-width:1.84917"
         id="rect526"
         width="32.033085"
         height="168.29285"
         x="-47.091625"
         y="205.53885"
         transform="rotate(-45)" />
    </g>
  </g>
</svg>
