<?xml version="1.0" encoding="UTF-8" standalone="no"?>
<svg
   width="30mm"
   height="30mm"
   viewBox="0 0 30 30"
   version="1.1"
   id="svg9"
   inkscape:version="1.1-alpha (2a16015, 2021-02-21)"
   sodipodi:docname="StarStroke.svg"
   xmlns:inkscape="http://www.inkscape.org/namespaces/inkscape"
   xmlns:sodipodi="http://sodipodi.sourceforge.net/DTD/sodipodi-0.dtd"
   xmlns="http://www.w3.org/2000/svg"
   xmlns:svg="http://www.w3.org/2000/svg">
  <sodipodi:namedview
     id="namedview11"
     pagecolor="#ffffff"
     bordercolor="#666666"
     borderopacity="1.0"
     objecttolerance="10.0"
     gridtolerance="10.0"
     guidetolerance="10.0"
     inkscape:pageshadow="2"
     inkscape:pageopacity="0.0"
     inkscape:pagecheckerboard="0"
     inkscape:document-units="mm"
     showgrid="false"
     inkscape:zoom="4.394379"
     inkscape:cx="60.645657"
     inkscape:cy="60.87322"
     inkscape:window-width="1858"
     inkscape:window-height="1057"
     inkscape:window-x="-8"
     inkscape:window-y="-8"
     inkscape:window-maximized="1"
     inkscape:current-layer="layer1" />
  <defs
     id="defs6" />
  <g
     inkscape:label="Слой 1"
     inkscape:groupmode="layer"
     id="layer1">
    <path
       fill="#231F20"
       d="m 29.865566,11.296276 c -0.222317,-0.661751 -0.795139,-1.144227 -1.484798,-1.24971 L 20.354157,8.8200356 16.748829,1.1396728 C 16.44137,0.48501852 15.78435,0.06829131 15.062527,0.06829131 c -0.722295,0 -1.378841,0.41672721 -1.686302,1.07138149 L 9.7704232,8.8205086 1.7438127,10.047039 c -0.6896575,0.105483 -1.26248009,0.587486 -1.48432459,1.24971 -0.22184461,0.662222 -0.0543972,1.391613 0.43328272,1.892064 l 5.86161577,6.010616 -1.3883023,8.50341 c -0.1144699,0.703848 0.1840032,1.41148 0.766286,1.823005 0.58181,0.411524 1.3499881,0.45315 1.9757884,0.107848 l 7.1548413,-3.95678 7.154841,3.95678 c 0.28239,0.156096 0.593163,0.232724 0.902515,0.232724 0.376522,0 0.753042,-0.11447 1.073275,-0.340572 0.582281,-0.411051 0.880283,-1.118683 0.765812,-1.823005 l -1.388303,-8.50341 5.86209,-6.010616 c 0.486733,-0.500451 0.65418,-1.229842 0.432336,-1.892537 z"
       id="path2"
       style="stroke:black;stroke-width:0.473016;fill:#ffffff;" />
  </g>
</svg>
