<?xml version="1.0" encoding="UTF-8" standalone="no"?>
<svg
   version="1.0"
   id="Layer_1"
   width="800px"
   height="800px"
   viewBox="0 0 64 64"
   enable-background="new 0 0 64 64"
   xml:space="preserve"
   sodipodi:docname="star.svg"
   inkscape:version="1.1-alpha (2a16015, 2021-02-21)"
   xmlns:inkscape="http://www.inkscape.org/namespaces/inkscape"
   xmlns:sodipodi="http://sodipodi.sourceforge.net/DTD/sodipodi-0.dtd"
   xmlns="http://www.w3.org/2000/svg"
   xmlns:svg="http://www.w3.org/2000/svg"><defs
   id="defs7" /><sodipodi:namedview
   id="namedview5"
   pagecolor="#ffffff"
   bordercolor="#666666"
   borderopacity="1.0"
   objecttolerance="10.0"
   gridtolerance="10.0"
   guidetolerance="10.0"
   inkscape:pageshadow="2"
   inkscape:pageopacity="0.0"
   inkscape:pagecheckerboard="0"
   showgrid="false"
   inkscape:zoom="0.545"
   inkscape:cx="309.17431"
   inkscape:cy="437.61468"
   inkscape:window-width="1858"
   inkscape:window-height="1057"
   inkscape:window-x="-8"
   inkscape:window-y="-8"
   inkscape:window-maximized="1"
   inkscape:current-layer="Layer_1" />
<path
   fill="#231F20"
   d="M62.799,23.737c-0.47-1.399-1.681-2.419-3.139-2.642l-16.969-2.593L35.069,2.265  C34.419,0.881,33.03,0,31.504,0c-1.527,0-2.915,0.881-3.565,2.265l-7.623,16.238L3.347,21.096c-1.458,0.223-2.669,1.242-3.138,2.642  c-0.469,1.4-0.115,2.942,0.916,4l12.392,12.707l-2.935,17.977c-0.242,1.488,0.389,2.984,1.62,3.854  c1.23,0.87,2.854,0.958,4.177,0.228l15.126-8.365l15.126,8.365c0.597,0.33,1.254,0.492,1.908,0.492c0.796,0,1.592-0.242,2.269-0.72  c1.231-0.869,1.861-2.365,1.619-3.854l-2.935-17.977l12.393-12.707C62.914,26.68,63.268,25.138,62.799,23.737z"
   id="path2"
   style="fill:#ff6600" />
</svg>
