<?xml version="1.0" encoding="UTF-8" standalone="no"?>
<svg
   width="30mm"
   height="30mm"
   viewBox="0 0 30 30"
   version="1.1"
   id="svg8935"
   inkscape:version="1.1-alpha (2a16015, 2021-02-21)"
   sodipodi:docname="unshownPass.svg"
   xmlns:inkscape="http://www.inkscape.org/namespaces/inkscape"
   xmlns:sodipodi="http://sodipodi.sourceforge.net/DTD/sodipodi-0.dtd"
   xmlns="http://www.w3.org/2000/svg"
   xmlns:svg="http://www.w3.org/2000/svg">
  <sodipodi:namedview
     id="namedview8937"
     pagecolor="#ffffff"
     bordercolor="#666666"
     borderopacity="1.0"
     objecttolerance="10.0"
     gridtolerance="10.0"
     guidetolerance="10.0"
     inkscape:pageshadow="2"
     inkscape:pageopacity="0.0"
     inkscape:pagecheckerboard="0"
     inkscape:document-units="mm"
     showgrid="false"
     inkscape:zoom="3.1072952"
     inkscape:cx="42.963411"
     inkscape:cy="48.434407"
     inkscape:window-width="1856"
     inkscape:window-height="1057"
     inkscape:window-x="-8"
     inkscape:window-y="-8"
     inkscape:window-maximized="1"
     inkscape:current-layer="layer1" />
  <defs
     id="defs8932">
    <inkscape:path-effect
       effect="bspline"
       id="path-effect8322"
       is_visible="true"
       lpeversion="1"
       weight="33.333333"
       steps="2"
       helper_size="0"
       apply_no_weight="true"
       apply_with_weight="true"
       only_selected="false" />
    <inkscape:path-effect
       effect="bspline"
       id="path-effect8909"
       is_visible="true"
       lpeversion="1"
       weight="33.333333"
       steps="2"
       helper_size="0"
       apply_no_weight="true"
       apply_with_weight="true"
       only_selected="false" />
  </defs>
  <g
     inkscape:label="Слой 1"
     inkscape:groupmode="layer"
     id="layer1">
    <g
       id="g8942"
       transform="translate(32.73567,3.6286664)">
      <path
         id="path9566"
         style="fill:#000000;fill-rule:evenodd;stroke-width:0.213938"
         d="m -18.004621,4.5245537 a 5.2153813,5.2153813 0 0 0 -5.215702,5.2151858 5.2153813,5.2153813 0 0 0 5.215702,5.2151855 5.2153813,5.2153813 0 0 0 5.215186,-5.2151855 5.2153813,5.2153813 0 0 0 -5.215186,-5.2151858 z m 0.02119,2.2773808 a 3.129229,3.129229 0 0 1 3.129008,3.129524 3.129229,3.129229 0 0 1 -3.129008,3.1290085 3.129229,3.129229 0 0 1 -3.129525,-3.1290085 3.129229,3.129229 0 0 1 3.129525,-3.129524 z" />
    </g>
    <g
       id="g9848"
       transform="matrix(1.2494843,0,0,1.3332752,-3.149079,-5.2904901)">
      <path
         style="fill:none;stroke:#000000;stroke-width:1.5px;stroke-linecap:round;stroke-linejoin:miter;stroke-opacity:1"
         d="M 3.0104746,14.20944 C 6.5642751,10.998672 10.11799,7.7879816 13.841868,7.7883152 c 3.723878,3.337e-4 7.617348,3.2114428 11.510607,6.4223778"
         id="path8320"
         sodipodi:nodetypes="ccc"
         transform="translate(0.46416743,-0.20304232)" />
      <path
         style="fill:none;stroke:#000000;stroke-width:1.5px;stroke-linecap:round;stroke-linejoin:miter;stroke-opacity:1"
         d="M 25.352475,14.210693 C 21.798674,17.421461 18.24496,20.632151 14.521082,20.631818 10.797204,20.631484 6.9037342,17.420375 3.0104746,14.20944"
         id="path8320-4"
         sodipodi:nodetypes="ccc"
         transform="translate(0.46416743,-0.20304232)" />
      <g
         id="g9449"
         transform="rotate(30.939454,4.4647348,51.278167)">
        <rect
           style="fill:none;stroke:#000000;stroke-width:1.59008px;stroke-linejoin:round;stroke-opacity:1"
           id="rect9263"
           width="0.56044209"
           height="22.446592"
           x="-4.4417524"
           y="2.5646775"
           rx="0.043718223" />
        <rect
           style="fill:#ffffff;stroke:#ffffff;stroke-width:1.59008px;stroke-linejoin:round;stroke-opacity:1"
           id="rect9263-7"
           width="0.56044209"
           height="22.446592"
           x="-2.3094804"
           y="2.5646775"
           rx="0.043718223" />
      </g>
    </g>
  </g>
</svg>
